<?xml version="1.0" encoding="UTF-8" standalone="no"?>
<svg
   xmlns:dc="http://purl.org/dc/elements/1.1/"
   xmlns:cc="http://creativecommons.org/ns#"
   xmlns:rdf="http://www.w3.org/1999/02/22-rdf-syntax-ns#"
   xmlns:svg="http://www.w3.org/2000/svg"
   xmlns="http://www.w3.org/2000/svg"
   xmlns:sodipodi="http://sodipodi.sourceforge.net/DTD/sodipodi-0.dtd"
   xmlns:inkscape="http://www.inkscape.org/namespaces/inkscape"
   width="1250"
   height="900"
   viewBox="0 0 25 18"
   version="1.1"
   id="svg8"
   sodipodi:docname="Flag_of_RÚV.svg"
   inkscape:version="0.92.3 (2405546, 2018-03-11)">
  <metadata
     id="metadata14">
    <rdf:RDF>
      <cc:Work
         rdf:about="">
        <dc:format>image/svg+xml</dc:format>
        <dc:type
           rdf:resource="http://purl.org/dc/dcmitype/StillImage" />
      </cc:Work>
    </rdf:RDF>
  </metadata>
  <defs
     id="defs12" />
  <sodipodi:namedview
     pagecolor="#ffffff"
     bordercolor="#666666"
     borderopacity="1"
     objecttolerance="10"
     gridtolerance="10"
     guidetolerance="10"
     inkscape:pageopacity="0"
     inkscape:pageshadow="2"
     inkscape:window-width="1920"
     inkscape:window-height="1017"
     id="namedview10"
     showgrid="false"
     inkscape:zoom="0.2272"
     inkscape:cx="625"
     inkscape:cy="450"
     inkscape:window-x="-8"
     inkscape:window-y="-8"
     inkscape:window-maximized="1"
     inkscape:current-layer="svg8" />
  <path
     d="M0 0H25V18H0Z"
     fill="#02529C"
     id="path2"
     style="fill:#ffffff" />
  <g
     id="g835"
     style="fill:#0a469e"
     transform="matrix(0.02173591,0,0,0.02111165,5.876243,2.8358561)">
    <path
       id="path821"
       d="m 279.19,1.12 c 56.41,-4.44 114.03,7.9 163.97,34.48 2.97,1.89 7.21,2.86 8.5,6.52 11.8,31.25 13.51,66.17 4.79,98.42 -6.98,26 -20.71,50.12 -39.39,69.49 -27.58,28.76 -66.21,46.86 -106.07,48.83 -7.32,0.8 -14.72,0.64 -22.03,-0.18 -31.44,-2.28 -62.11,-14.28 -86.76,-33.93 -37.48,-29.29 -61.05,-76.02 -60.98,-123.72 -0.56,-20.31 3.15,-40.65 10.41,-59.6 0.78,-2.4 3.43,-3.13 5.38,-4.33 C 194.56,16.59 236.53,4.27 279.19,1.12 m 8.03,23.02 c -35.93,4.51 -68.59,28.26 -84.23,60.87 -17.3,34.53 -13.96,78.22 8.31,109.76 12.04,17.62 29.37,31.54 49.15,39.51 18.77,7.71 39.73,9.97 59.71,6.44 25.67,-4.41 49.63,-18.38 65.99,-38.67 17.73,-21.22 26.68,-49.48 24.45,-77.04 C 408.69,89.29 387.07,55.7 356.17,38 335.61,25.75 310.89,21.23 287.22,24.14 Z"
       inkscape:connector-curvature="0" />
    <path
       id="path825"
       d="m 74.47,103.51 c 5.91,-6.38 11.46,-13.22 18.3,-18.64 5.3,48.58 28.05,95.13 63.56,128.77 36.85,35.77 87.35,57.01 138.66,58.44 48.34,1.71 97.13,-14.03 135.27,-43.8 33.78,-26.01 59.35,-62.54 71.96,-103.29 4.2,-13.04 6.76,-26.56 8.47,-40.14 18.37,17.91 34.92,37.92 47.9,60.08 -5.79,10.96 -13.53,20.79 -20.99,30.65 -32.94,41.63 -77.05,74.33 -126.52,93.59 -9.66,3.73 -19.52,6.89 -29.19,10.56 21.78,-4.79 43.59,-9.82 64.64,-17.34 36.96,-12.64 72.18,-30.31 104.46,-52.29 10.26,-6.74 19.86,-14.39 29.63,-21.79 8.95,22.06 15.14,45.21 18.79,68.73 -70.36,23.36 -143.58,38.16 -217.45,44.28 25.99,0.8 52,0.17 78,0.39 47.47,-0.05 94.95,0.01 142.42,-0.03 0.34,32.01 -5.1,64 -15.02,94.41 -2.18,-0.9 -4.23,-2.06 -6.18,-3.35 -54.13,-32.38 -114,-55.09 -175.97,-66.87 -3.56,-0.63 -7.11,-1.68 -10.77,-1.34 66.2,20.83 124.4,65.87 161.68,124.37 1.29,2.04 2.76,4.01 3.69,6.27 -0.33,2.65 -2.37,4.67 -3.64,6.92 -10.06,15.62 -21.25,30.54 -34.04,44.03 -2.81,3.04 -5.65,6.05 -8.43,9.11 -0.48,0.16 -1.43,0.47 -1.91,0.62 C 507.52,476.51 492.14,438.37 467.42,407.43 446.65,381.07 419.4,359.86 388.8,346.1 349.67,328.39 305.06,323.35 262.91,331.41 215.66,340.28 171.7,365.97 141.11,403.1 113.78,435.62 97.19,476.71 93.32,518.96 74.69,500.91 58.18,480.61 44.61,458.49 c -0.81,-1.02 0.16,-2.17 0.6,-3.08 34.87,-57.94 89.9,-103.41 153.38,-126.72 5.08,-1.83 10,-4.22 15.33,-5.28 C 156.5,332.3 100.77,351.28 49.25,378.08 38.03,384.11 26.96,390.43 16.01,396.94 5.66,366.34 0.5,334 0.36,301.73 74,301.56 147.64,301.9 221.28,301.57 189.77,298.25 158.24,294.5 127.1,288.48 85.47,280.83 44.45,270.01 4.2,256.95 c -0.15,-4.14 0.72,-8.19 1.58,-12.2 3.35,-18.69 9.12,-36.83 15.57,-54.65 2.04,0.55 3.7,1.87 5.29,3.2 58.09,45.37 127.75,75.73 200.49,87.52 -20.54,-6 -40.86,-13.13 -59.97,-22.84 C 116.64,232.86 73.7,193.05 44.42,144.85 52.9,130.03 63.5,116.54 74.47,103.51 Z"
       inkscape:connector-curvature="0" />
    <path
       id="path833"
       d="m 286.48,343.82 c 24.85,-2.01 50.24,1.05 73.45,10.37 34.37,13.31 63.73,39.02 81.65,71.22 22.11,39.01 26.48,87.46 11.85,129.83 -1.29,2.89 -1.45,6.85 -4.42,8.62 -49.57,27.94 -107.21,41.27 -164,38.08 -44.1,-2.44 -87.69,-14.56 -126.54,-35.62 -2.59,-1.6 -6.18,-2.57 -7.09,-5.85 -3.98,-11.17 -7.16,-22.66 -8.82,-34.42 -3.63,-28.96 -0.39,-59.09 11.56,-85.87 7.28,-17.19 17.84,-32.89 30.52,-46.55 26.47,-28.15 63.31,-46.34 101.84,-49.81 m 11.67,16.29 c -28.5,0.7 -56.46,13.32 -75.97,34.09 -19.49,20.35 -30.79,48.52 -30.09,76.74 -0.1,18.93 5.44,37.71 14.95,54.01 17.83,30.68 51.33,51.93 86.89,53.87 9.37,1.36 18.82,-0.15 28.09,-1.57 36.89,-6.86 69.23,-34.02 82.02,-69.34 6.72,-17.05 8.05,-35.78 5.86,-53.86 -4.39,-31.65 -23.54,-60.77 -50.76,-77.48 -18.07,-11.41 -39.65,-17.18 -60.99,-16.46 z"
       inkscape:connector-curvature="0" />
  </g>
</svg>
